<svg width="21" height="20" viewBox="0 0 21 20" fill="none" xmlns="http://www.w3.org/2000/svg">
<path d="M17.2094 10.7907C17.646 10.7907 18 10.4367 18 10C18 9.56333 17.646 9.20935 17.2094 9.20935L11.2907 9.20935V3.29065C11.2907 2.85399 10.9367 2.5 10.5 2.5C10.0634 2.5 9.70938 2.85399 9.70938 3.29065V9.20935H3.79069C3.35402 9.20934 3.00003 9.56333 3.00003 10C3.00003 10.4367 3.35402 10.7907 3.79069 10.7907H9.70938L9.70938 16.7093C9.70938 17.146 10.0634 17.5 10.5 17.5C10.9367 17.5 11.2907 17.146 11.2907 16.7093V10.7907H17.2094Z" fill="white"/>
</svg>
