<svg width="48" height="48" viewBox="0 0 48 48" fill="none" xmlns="http://www.w3.org/2000/svg">
<path d="M22.5858 28.5858C21.8047 29.3668 21.8047 30.6332 22.5858 31.4142C23.3668 32.1953 24.6332 32.1953 25.4142 31.4142L22.5858 28.5858ZM30 24L31.4142 25.4142C31.7893 25.0391 32 24.5304 32 24C32 23.4696 31.7893 22.9609 31.4142 22.5858L30 24ZM25.4142 16.5858C24.6332 15.8047 23.3668 15.8047 22.5858 16.5858C21.8047 17.3668 21.8047 18.6332 22.5858 19.4142L25.4142 16.5858ZM8 22C6.89543 22 6 22.8954 6 24C6 25.1046 6.89543 26 8 26L8 22ZM25.4142 31.4142L31.4142 25.4142L28.5858 22.5858L22.5858 28.5858L25.4142 31.4142ZM31.4142 22.5858L25.4142 16.5858L22.5858 19.4142L28.5858 25.4142L31.4142 22.5858ZM8 26L30 26V22L8 22L8 26Z" fill="#F8F8F8"/>
<path d="M18 14V10C18 8.89543 18.8954 8 20 8H38C39.1046 8 40 8.89543 40 10V38C40 39.1046 39.1046 40 38 40H20C18.8954 40 18 39.1046 18 38V34" stroke="#F8F8F8" stroke-width="4" stroke-linecap="round" stroke-linejoin="round"/>
</svg>
