<svg width="16" height="16" viewBox="0 0 16 16" fill="none" xmlns="http://www.w3.org/2000/svg">
<path fill-rule="evenodd" clip-rule="evenodd" d="M1.99994 7.22265C1.99994 4.33826 4.3382 2 7.22259 2C10.107 2 12.4452 4.33826 12.4452 7.22265C12.4452 8.62247 11.8945 9.89366 10.9979 10.8314C10.9675 10.8555 10.9381 10.8816 10.9099 10.9097C10.8818 10.9379 10.8556 10.9673 10.8315 10.9978C9.89379 11.8945 8.62251 12.4453 7.22259 12.4453C4.3382 12.4453 1.99994 10.107 1.99994 7.22265ZM11.5739 12.9879C10.3638 13.9027 8.85653 14.4453 7.22259 14.4453C3.23363 14.4453 -6.10352e-05 11.2116 -6.10352e-05 7.22265C-6.10352e-05 3.23369 3.23363 0 7.22259 0C11.2115 0 14.4452 3.23369 14.4452 7.22265C14.4452 8.85647 13.9028 10.3636 12.9881 11.5737L15.7077 14.2933C16.0982 14.6838 16.0982 15.317 15.7077 15.7075C15.3172 16.098 14.684 16.098 14.2935 15.7075L11.5739 12.9879Z" fill="#00406A"/>
</svg>
