<svg width="24" height="24" viewBox="0 0 24 24" fill="none" xmlns="http://www.w3.org/2000/svg">
<path d="M5 21L19 21C19.5523 21 20 20.5523 20 20L20 10C20 9.44772 19.5523 9 19 9L5 9C4.44772 9 4 9.44772 4 10L4 20C4 20.5523 4.44772 21 5 21Z" stroke="#00406A" stroke-width="2" stroke-linecap="round" stroke-linejoin="round"/>
<path d="M14.7692 9V8V9ZM9.23077 9L9.23077 10H9.23077L9.23077 9ZM9 8.76923H8H9ZM9 6H10H9ZM15 6H14V6L15 6ZM15 8.76923H16H15ZM12 3V4V3ZM14.7692 8L9.23077 8L9.23077 10L14.7692 10V8ZM10 8.76923L10 6H8L8 8.76923H10ZM14 6L14 8.76923H16L16 6L14 6ZM12 4C13.1046 4 14 4.89543 14 6H16C16 3.79086 14.2091 2 12 2V4ZM10 6C10 4.89543 10.8954 4 12 4V2C9.79086 2 8 3.79086 8 6H10ZM9.23077 8C9.65561 8 10 8.3444 10 8.76923H8C8 9.44896 8.55103 10 9.23077 10L9.23077 8ZM14.7692 10C15.449 10 16 9.44897 16 8.76923H14C14 8.34439 14.3444 8 14.7692 8V10Z" fill="#00406A"/>
</svg>
