<svg width="657" height="526" viewBox="0 0 657 526" fill="none" xmlns="http://www.w3.org/2000/svg">
<path d="M-254.676 29.1238C-255.708 177.22 -174.571 186.289 -134.118 303.502C-111.058 370.282 -128.213 461.144 -58.4445 504.68C-5.96392 537.414 69.546 529.664 126.269 499.521C152.765 485.437 175.653 451.558 201.882 439.779C256.013 415.493 302.051 433.875 358.69 434.509C423.983 435.213 487.786 421.294 533.071 354.408C577.254 289.175 564.439 210.258 591.934 139.372C620.72 65.1704 674.714 30.2686 649.456 -55.3956C629.354 -123.522 563.13 -141.137 525.135 -188.874C427.988 -310.867 416.085 -433.099 226.643 -367.593C147.392 -340.185 78.0682 -282.56 -0.133677 -262.486C-139.179 -226.736 -253.304 -167.352 -254.676 29.1238Z" fill="url(#paint0_linear_11_1669)"/>
<defs>
<linearGradient id="paint0_linear_11_1669" x1="222.59" y1="-378.917" x2="243.682" y2="527.915" gradientUnits="userSpaceOnUse">
<stop offset="0.479167" stop-color="#2D862D"/>
<stop offset="1" stop-color="#00406A"/>
</linearGradient>
</defs>
</svg>
