<svg width="642" height="92" viewBox="0 0 642 92" fill="none" xmlns="http://www.w3.org/2000/svg">
<path d="M757.43 276.831C691.973 164.175 624.933 192.187 541.092 120.767C493.313 80.0824 465.978 3.86159 392.343 0.869608C336.961 -1.36946 281.814 36.9665 251.269 84.1931C237.004 106.256 234.394 141.766 219.304 161.967C188.151 203.642 144.191 209.507 99.9413 233.377C48.9429 260.916 5.64428 298.892 0.417259 369.042C-4.69397 437.464 40.5603 491.749 50.9322 557.28C61.7853 625.879 35.4879 675.538 93.4206 729.586C139.504 772.563 198.791 757.437 249.642 777.272C379.631 827.939 443.558 915.437 561.303 784.355C610.558 729.516 638.589 656.05 690.311 607.218C782.249 520.35 844.269 426.29 757.43 276.831Z" fill="url(#paint0_linear_83_893)"/>
<defs>
<linearGradient id="paint0_linear_83_893" x1="569.515" y1="791.193" x2="166.691" y2="101.899" gradientUnits="userSpaceOnUse">
<stop offset="0.479167" stop-color="#2D862D"/>
<stop offset="1" stop-color="#00406A"/>
</linearGradient>
</defs>
</svg>
