<svg width="523" height="648" viewBox="0 0 523 648" fill="none" xmlns="http://www.w3.org/2000/svg">
<path d="M6.84405 158.43C-20.1271 285.9 48.3927 310.067 62.7099 419.269C70.8787 481.489 40.0537 556.367 92.6788 607.958C132.267 646.753 198.885 655.286 253.212 640.728C278.589 633.924 304.334 609.328 329.074 604.458C380.13 594.427 416.677 619.55 465.511 631.51C521.812 645.272 579.399 646.128 630.311 597.588C679.98 550.251 682.803 479.633 719.046 424.06C756.989 365.889 809.795 346.678 803.052 267.736C797.678 204.952 743.55 176.422 719.122 127.612C656.653 2.86402 667.891 -104.914 492.645 -86.6095C419.332 -78.9486 349.278 -43.2371 278.163 -41.6874C151.708 -38.8818 42.6274 -10.6807 6.84405 158.43Z" fill="url(#paint0_linear_83_896)"/>
<defs>
<linearGradient id="paint0_linear_83_896" x1="491.137" y1="-97.1889" x2="327.834" y2="684.3" gradientUnits="userSpaceOnUse">
<stop offset="0.479167" stop-color="#2D862D"/>
<stop offset="1" stop-color="#00406A"/>
</linearGradient>
</defs>
</svg>
