<svg width="180" height="52" viewBox="0 0 180 52" fill="none" xmlns="http://www.w3.org/2000/svg">
<path fill-rule="evenodd" clip-rule="evenodd" d="M70.3596 38.4378C68.8188 39.2175 66.0681 39.9415 62.6567 39.9415C55.9445 39.9415 51.8185 35.5968 51.8185 29.1357C51.8185 19.6666 58.9156 11.6455 68.8737 11.6455C71.2396 11.6455 73.3306 12.2582 74.3206 12.7034L72.6699 17.7728C71.6799 17.327 70.4145 16.9368 68.6539 16.9368C62.4369 16.9368 58.5302 22.7296 58.5302 28.3554C58.5302 32.4219 60.8411 34.7058 64.4174 34.7058C66.8932 34.7058 68.7638 34.0375 70.1391 33.4241L70.3596 38.4378Z" fill="#F8F8F8"/>
<path fill-rule="evenodd" clip-rule="evenodd" d="M89.2312 16.4912C85.2146 16.4912 82.5739 20.1113 81.8038 23.3981C88.4055 23.5094 92.642 22.5622 92.642 19.3316C92.642 17.5491 91.2666 16.4912 89.2312 16.4912ZM95.3382 37.8246C92.6975 39.217 89.1212 39.9416 85.8753 39.9416C78.4473 39.9416 74.8716 35.3737 74.8716 28.7451C74.8716 20.5576 80.8132 11.645 90.0562 11.645C95.3382 11.645 98.694 14.7649 98.694 19.2759C98.694 26.2385 91.4865 28.4668 81.143 28.2442C81.0331 29.1908 81.2535 31.029 81.8587 32.0869C82.9037 33.9251 84.8298 34.8729 87.3606 34.8729C90.3866 34.8729 92.8074 34.0926 94.733 33.0898L95.3382 37.8246Z" fill="#F8F8F8"/>
<path fill-rule="evenodd" clip-rule="evenodd" d="M121.086 17.5237C120.426 17.1813 119.051 16.839 117.565 16.839C111.953 16.839 107.992 23.1168 107.992 29.1092C107.937 32.0204 109.093 34.7598 112.284 34.7598C115.475 34.7598 118.666 30.8215 119.601 25.7994L121.086 17.5237ZM101.72 45.0327C103.315 46.0035 106.287 46.6882 108.817 46.6882C112.999 46.6882 116.19 44.6335 117.51 38.1839L118.17 35.0453H118.06C115.859 38.3551 113.054 39.9531 109.642 39.9531C104.306 39.9531 101.28 35.3876 101.225 30.1368C101.225 20.8903 107.662 11.645 118.775 11.645C122.242 11.645 125.598 12.444 128.073 13.5854L124.002 36.529C123.012 41.951 121.472 46.289 118.501 48.9135C115.694 51.3112 111.898 51.9959 108.542 51.9959C105.131 51.9959 101.94 51.2543 100.179 50.1124L101.72 45.0327Z" fill="#F8F8F8"/>
<path fill-rule="evenodd" clip-rule="evenodd" d="M157.675 0L150.467 8.24365H145.625L150.907 0H157.675ZM150.633 16.8756C149.972 16.7093 149.147 16.5974 147.991 16.5974C142.05 16.5974 137.483 23.3373 137.483 29.5202C137.483 32.3607 138.528 34.7003 141.334 34.7003C144.305 34.7003 147.936 30.9126 149.202 24.0057L150.633 16.8756ZM147.983 39.9081C148.038 38.2962 148.258 36.1283 148.478 33.7942H148.313C145.677 38.797 142.164 39.9359 138.76 39.9359C133.984 39.9359 130.855 36.1568 130.855 30.7094C130.855 21.4834 137.223 11.6454 149.685 11.6454C152.595 11.6454 155.724 12.2013 157.756 12.8678L155.011 26.9853C154.242 31.0433 153.803 36.6848 153.912 39.9081H147.983Z" fill="#F8F8F8"/>
<path fill-rule="evenodd" clip-rule="evenodd" d="M160.756 33.2796C162.131 34.0593 164.772 35.1178 167.193 35.1178C169.779 35.0622 171.319 33.5585 171.319 31.776C171.319 30.0491 170.439 28.9906 167.798 27.5982C164.717 25.9832 162.517 23.6436 162.517 20.5243C162.517 15.2887 167.028 11.6123 173.355 11.6123C176.161 11.6123 178.472 12.2807 179.682 13.0047L178.032 17.6839C177.042 17.1262 175.225 16.4578 173.025 16.4578C170.604 16.4578 168.953 17.7946 168.953 19.6328C168.953 21.1371 170.164 22.1956 172.42 23.3648C175.335 24.9803 177.977 27.2086 177.977 30.6618C177.977 36.6215 173.025 39.9083 166.587 39.9083C163.451 39.9083 160.536 39.0167 159.105 37.9588L160.756 33.2796Z" fill="#F8F8F8"/>
<path fill-rule="evenodd" clip-rule="evenodd" d="M135.289 49.5115V51.3751C134.783 51.7368 133.988 51.9957 133.327 51.9957C131.891 51.9957 130.806 50.945 130.806 49.5527C130.806 48.1669 131.919 47.1235 133.408 47.1235C134.109 47.1235 134.85 47.3963 135.336 47.833L134.662 48.6587C134.318 48.3381 133.839 48.1397 133.402 48.1397C132.626 48.1397 132.033 48.7542 132.033 49.5527C132.033 50.365 132.633 50.9789 133.415 50.9789C133.657 50.9789 133.968 50.89 134.251 50.7473V49.5115H135.289Z" fill="#F8F8F8"/>
<path fill-rule="evenodd" clip-rule="evenodd" d="M137.667 46.8016L138.381 45.6548L139.433 46.031L138.556 46.8016H137.667ZM138.233 48.4263L137.545 50.1937H138.907L138.233 48.4263ZM137.195 51.0973L136.851 51.9955H135.617L137.653 47.1222H138.887L140.875 51.9955H139.594L139.258 51.0973H137.195Z" fill="#F8F8F8"/>
<path fill-rule="evenodd" clip-rule="evenodd" d="M144.965 47.6423L144.513 48.5907C144.015 48.2973 143.388 48.0923 143.004 48.0923C142.694 48.0923 142.485 48.209 142.485 48.4401C142.485 49.2663 144.979 48.7951 144.979 50.522C144.979 51.4777 144.143 51.9827 143.092 51.9827C142.303 51.9827 141.494 51.6821 140.934 51.2182L141.4 50.2831C141.885 50.7131 142.612 50.9998 143.105 50.9998C143.482 50.9998 143.718 50.8565 143.718 50.5831C143.718 49.7375 141.224 50.2419 141.224 48.5495C141.224 47.6695 141.972 47.1094 143.105 47.1094C143.786 47.1094 144.48 47.3211 144.965 47.6423Z" fill="#F8F8F8"/>
<path fill-rule="evenodd" clip-rule="evenodd" d="M150.491 51.9964L148.32 48.9878V51.9964H147.195V47.1104H148.253L150.43 50.1256V47.1104H151.549V51.9964H150.491Z" fill="#F8F8F8"/>
<path fill-rule="evenodd" clip-rule="evenodd" d="M154.601 48.345L153.914 50.1529H155.275L154.601 48.345ZM153.563 51.0953L153.219 51.9959H151.985L154.021 47.1099H155.255L157.244 51.9959H155.963L155.626 51.0953H153.563Z" fill="#F8F8F8"/>
<path fill-rule="evenodd" clip-rule="evenodd" d="M159.359 48.1111V51.9998H158.159V48.1111H156.749V47.1064H160.781V48.1111H159.359Z" fill="#F8F8F8"/>
<path fill-rule="evenodd" clip-rule="evenodd" d="M165.539 49.9116C165.539 51.1885 164.709 51.996 163.388 51.996C162.06 51.996 161.211 51.1885 161.211 49.9116V47.1099H162.411V49.9116C162.411 50.5673 162.822 50.9677 163.395 50.9677C163.961 50.9677 164.346 50.5673 164.346 49.9116V47.1099H165.539V49.9116Z" fill="#F8F8F8"/>
<path fill-rule="evenodd" clip-rule="evenodd" d="M168.56 49.6482C169.079 49.6482 169.382 49.3772 169.382 48.8619C169.382 48.3544 169.079 48.0974 168.56 48.0974H167.65V49.6482H168.56ZM168.594 50.6214H168.56H167.65V51.9921H166.45V47.1235H168.56C169.807 47.1235 170.521 47.7357 170.521 48.8208C170.521 49.5648 170.218 50.1001 169.665 50.3862L170.656 51.9921H169.294L168.594 50.6214Z" fill="#F8F8F8"/>
<path fill-rule="evenodd" clip-rule="evenodd" d="M173.389 48.3456L172.701 50.1529H174.063L173.389 48.3456ZM172.35 51.0953L172.007 51.9959H170.773L172.808 47.1099H174.042L176.031 51.9959H174.75L174.413 51.0953H172.35Z" fill="#F8F8F8"/>
<path fill-rule="evenodd" clip-rule="evenodd" d="M179.669 50.959V51.9963H176.467V47.1235H177.667V50.959H179.669Z" fill="#F8F8F8"/>
<path fill-rule="evenodd" clip-rule="evenodd" d="M42.907 31.0966C42.8753 31.2986 42.8395 31.5 42.7994 31.7014C42.2056 34.6755 40.5023 37.5504 37.8198 38.9041C35.5752 40.0376 32.9512 39.9995 30.4438 39.9372C33.0504 39.4606 35.6421 38.2285 37.1566 36.0274C38.287 34.3852 38.7255 32.3426 38.7966 30.3411C38.9328 26.5093 37.9369 22.9031 36.9367 19.0744C34.6868 19.4802 32.3353 20.1504 30.2406 21.0764C30.2723 21.0619 28.2983 17.3741 28.1113 17.0444C27.999 16.8454 27.9518 16.8122 28.1651 16.7118C28.3378 16.6301 28.5224 16.5678 28.6998 16.4989C29.0433 16.3652 29.3881 16.2351 29.7346 16.1099C30.4282 15.8595 31.1278 15.6266 31.8322 15.4113C34.4544 14.6117 37.5073 14.0582 40.2304 13.7637C41.4863 18.1852 42.0311 20.8412 42.4231 22.6672C43.0157 25.4327 43.3413 28.3106 42.907 31.0966Z" fill="#F8F8F8"/>
<path fill-rule="evenodd" clip-rule="evenodd" d="M31.8334 32.308C30.5687 34.7372 27.6866 36.1695 24.8673 36.158C20.9158 36.141 17.1591 33.3672 16.9494 29.4059C16.8102 26.8056 18.2231 24.3426 20.0023 22.3835C20.3423 22.0103 20.6935 21.6546 21.0574 21.3068C20.0967 22.3865 19.5178 23.7904 19.5178 25.3219V25.4247C19.559 27.575 20.877 29.2777 22.5056 30.5449C23.2386 31.1171 24.2083 31.4933 25.1744 31.4564C25.488 31.4449 25.7891 31.3995 26.0699 31.3167C29.191 30.4166 27.116 25.7266 26.0024 23.4541C25.8811 23.2007 25.7688 22.9787 25.6768 22.7936C25.5382 22.5172 25.396 22.2383 25.2514 21.9619C25.08 21.6401 24.9085 21.3183 24.7311 20.9965C24.6038 20.7655 24.4742 20.532 24.3409 20.3016C24.1844 20.0251 24.0249 19.7487 23.8654 19.4753C23.8152 19.3876 23.765 19.2993 23.7118 19.214C23.7058 19.1995 23.6969 19.1886 23.6909 19.1765C21.371 15.381 18.8582 11.6702 16.1572 8.11602C14.5166 10.2258 12.9149 12.3646 11.3543 14.5318C9.43596 17.192 7.22841 19.8231 5.98394 22.865C3.78835 28.241 4.37025 34.7372 10.2019 37.5933C12.7201 38.826 15.5836 39.7134 18.3976 39.9414H16.3908C15.5675 39.9414 14.3702 39.9444 13.5458 39.9384C8.57146 39.9099 3.43048 37.6332 1.208 33.0823C-2.4597 25.5753 2.99016 17.7218 7.35268 11.75C10.2192 7.82811 13.3259 3.93523 16.1572 0C20.5287 5.32822 24.3499 10.9522 27.9614 16.7849C27.9674 16.7958 27.9734 16.8042 27.9793 16.8163C28.1717 17.1466 28.3605 17.4823 28.5469 17.8156C29.1318 18.8632 29.685 19.9284 30.2018 21.0074C30.2138 21.0334 30.2257 21.0588 30.2377 21.0842C30.5537 21.7454 30.8554 22.4149 31.1386 23.0869C31.5789 24.1261 31.978 25.2251 32.2475 26.3362C32.741 28.3777 32.7911 30.4681 31.8334 32.308Z" fill="#F8F8F8"/>
<path fill-rule="evenodd" clip-rule="evenodd" d="M26.0021 23.4543C24.8527 24.3084 23.803 25.2822 22.9343 26.3958C22.1773 27.3672 21.4622 28.6598 22.0268 29.8755C22.1451 30.129 22.3076 30.354 22.5059 30.5451C20.8773 29.2779 19.5587 27.5746 19.5175 25.425V25.3221C19.5175 23.7906 20.097 22.3862 21.0577 21.3065C21.4269 20.9563 21.8141 20.6181 22.2102 20.2903C22.2132 20.2903 22.2132 20.2903 22.2162 20.2879C22.6887 19.8971 23.1828 19.527 23.6877 19.1768H23.6906C23.6966 19.1883 23.7056 19.1997 23.7116 19.2137C23.7647 19.2995 23.8149 19.3872 23.8651 19.4756C24.0246 19.749 24.1847 20.0254 24.3413 20.3018C24.4739 20.5323 24.6041 20.7657 24.7314 20.9968C24.9082 21.3186 25.0803 21.6404 25.2512 21.9615C25.3963 22.238 25.5379 22.5168 25.6771 22.7932C25.7685 22.9789 25.8809 23.2009 26.0021 23.4543Z" fill="#F8F8F8"/>
</svg>
