<svg width="533" height="387" viewBox="0 0 533 387" fill="none" xmlns="http://www.w3.org/2000/svg">
<g style="mix-blend-mode:darken" opacity="0.8">
<path d="M-70.7744 209.017C-91.8142 185.034 -96.0611 152.175 -99.7988 123.191C-101.803 107.673 -103.702 93.0011 -107.797 80.3067C-117.059 51.6296 -130.206 33.1127 -142.926 15.2022C-163.494 -13.7374 -184.757 -43.6745 -184.33 -109.518C-183.892 -175.823 -166.522 -225.519 -131.218 -261.44C-96.6014 -296.674 -48.9094 -313.067 -11.2459 -323.402C13.3376 -330.164 36.8428 -344.005 61.7093 -358.672C83.3413 -371.421 105.698 -384.604 129.815 -393.526C191.665 -416.38 232.126 -410.121 265.08 -372.562C277.792 -358.084 288.63 -339.985 300.1 -320.825C310.249 -303.897 320.73 -286.394 333.858 -268.765C335.125 -267.068 336.522 -265.334 338.006 -263.644C345.209 -255.433 353.951 -248.443 363.181 -241.046C373.044 -233.147 383.23 -224.992 392.227 -214.733C403.004 -202.46 410.297 -189.048 414.511 -173.774C427.553 -126.56 411.411 -97.2136 395.814 -68.847C389.456 -57.285 382.895 -45.3464 377.873 -31.5179C371.476 -13.873 368.89 5.02016 366.141 25.038C361.952 55.6297 357.615 87.2685 339.013 116.638C303.205 173.169 251.194 179.132 215.193 178.711C203.636 178.587 193.054 177.307 182.82 176.08C161.54 173.52 143.17 171.315 123.599 180.701C117.75 183.505 110.705 190.671 103.901 197.602C95.7334 205.917 87.2732 214.515 77.1562 220.256C40.5287 241.064 -14.3144 250.115 -54.2958 223.475C-60.4317 219.333 -65.9742 214.475 -70.7744 209.017Z" fill="url(#paint0_linear_132_1146)"/>
<path d="M-168.367 -110.81C-169.016 -11.4347 -118.081 -5.34929 -92.6862 73.3019C-78.2096 118.113 -88.9788 179.082 -45.1812 208.296C-12.2359 230.26 35.1663 225.06 70.7748 204.833C87.4077 195.383 101.776 172.65 118.241 164.746C152.223 148.45 181.124 160.784 216.679 161.21C257.668 161.682 297.721 152.342 326.149 107.461C353.885 63.6883 345.841 10.7342 363.101 -36.8314C381.172 -86.6219 415.067 -110.042 399.211 -167.523C386.592 -213.237 345.019 -225.057 321.167 -257.089C260.182 -338.948 252.71 -420.968 133.785 -377.012C84.0349 -358.621 40.5161 -319.954 -8.57588 -306.484C-95.863 -282.495 -167.506 -242.648 -168.367 -110.81Z" fill="url(#paint1_linear_132_1146)"/>
</g>
<defs>
<linearGradient id="paint0_linear_132_1146" x1="132.705" y1="-401.689" x2="148.74" y2="240.458" gradientUnits="userSpaceOnUse">
<stop offset="0.479167" stop-color="#2D862D"/>
<stop offset="1" stop-color="#00406A"/>
</linearGradient>
<linearGradient id="paint1_linear_132_1146" x1="131.241" y1="-384.611" x2="146.368" y2="223.84" gradientUnits="userSpaceOnUse">
<stop offset="0.479167" stop-color="#2D862D"/>
<stop offset="1" stop-color="#00406A"/>
</linearGradient>
</defs>
</svg>
